<svg width="794" height="794" viewBox="0 0 794 794" fill="none" xmlns="http://www.w3.org/2000/svg">
<path d="M730.812 204.272V589.727L397 782.452L63.1875 589.727V204.272L397 11.5469L730.812 204.272Z" fill="#00153C" stroke="#000113" stroke-width="20"/>
<path d="M309.372 367.042L316.112 335.249L270.165 249.509L239.665 275.243L309.372 367.042ZM309.372 367.042L369.2 386.678L391.044 382.305L420.654 309.069L496.052 317.576M496.052 317.576L581.295 146.049M496.052 317.576L548.994 403.038L541.711 446.362M581.295 146.049L595.233 207.043L585.234 244.971M581.295 146.049L500.026 115.759L476.284 122.709M541.711 446.362L510.291 474.134L594.016 628.926L677.311 509.017L541.711 446.362Z" stroke="white" stroke-opacity="0.12" stroke-width="4" stroke-linecap="round" stroke-dasharray="12 12"/>
<path d="M462.034 568.049C390.153 566.139 215 561.514 215 561.514C216.466 561.426 390.328 556.816 462.063 554.98L424.531 529.044L469.907 545.727L477.351 494L484.794 545.727L523.557 525.748C523.557 525.748 497.634 550.675 493.955 554.228L609 561.514L493.926 568.801L523.528 597.281L484.765 577.302L477.322 629L469.879 577.302L424.503 593.985L462.034 568.049Z" fill="url(#paint0_linear_40_390)"/>
<circle cx="121.5" cy="400.5" r="2.5" fill="white" fill-opacity="0.3"/>
<circle cx="143.5" cy="312.5" r="2.5" fill="white" fill-opacity="0.3"/>
<circle cx="586.5" cy="387.5" r="2.5" fill="white" fill-opacity="0.3"/>
<circle cx="519.5" cy="289.5" r="2.5" fill="white" fill-opacity="0.3"/>
<circle cx="384.5" cy="83.5" r="2.5" fill="white" fill-opacity="0.3"/>
<circle cx="616.5" cy="283.5" r="2.5" fill="white" fill-opacity="0.3"/>
<circle cx="591.5" cy="324.5" r="2.5" fill="white" fill-opacity="0.2"/>
<circle cx="389.5" cy="410.5" r="2.5" fill="white" fill-opacity="0.2"/>
<circle cx="298.5" cy="622.5" r="2.5" fill="white" fill-opacity="0.2"/>
<circle cx="168.5" cy="622.5" r="2.5" fill="white" fill-opacity="0.2"/>
<circle cx="104.5" cy="539.5" r="2.5" fill="white" fill-opacity="0.2"/>
<circle cx="96.5" cy="527.5" r="2.5" fill="white" fill-opacity="0.2"/>
<circle cx="102.5" cy="478.5" r="2.5" fill="white" fill-opacity="0.2"/>
<circle cx="507.5" cy="559.5" r="2.5" fill="white" fill-opacity="0.2"/>
<circle cx="556.5" cy="594.5" r="2.5" fill="white" fill-opacity="0.2"/>
<circle cx="655.5" cy="594.5" r="2.5" fill="white" fill-opacity="0.2"/>
<circle cx="731.5" cy="492.5" r="2.5" fill="white" fill-opacity="0.2"/>
<circle cx="597.5" cy="464.5" r="2.5" fill="white" fill-opacity="0.2"/>
<circle cx="550.5" cy="456.5" r="2.5" fill="white" fill-opacity="0.2"/>
<circle cx="514.5" cy="475.5" r="2.5" fill="white" fill-opacity="0.2"/>
<circle cx="454.5" cy="617.5" r="2.5" fill="white" fill-opacity="0.2"/>
<circle cx="340.5" cy="627.5" r="2.5" fill="white" fill-opacity="0.2"/>
<circle cx="447.5" cy="582.5" r="2.5" fill="white" fill-opacity="0.2"/>
<circle cx="441.5" cy="197.5" r="2.5" fill="white" fill-opacity="0.3"/>
<circle cx="384.5" cy="253.5" r="2.5" fill="white" fill-opacity="0.3"/>
<circle cx="448.5" cy="276.5" r="2.5" fill="white" fill-opacity="0.3"/>
<circle cx="602.5" cy="241.5" r="2.5" fill="white" fill-opacity="0.3"/>
<circle cx="522.5" cy="387.5" r="2.5" fill="white" fill-opacity="0.3"/>
<circle cx="410.5" cy="387.5" r="2.5" fill="white" fill-opacity="0.3"/>
<circle cx="173.5" cy="370.5" r="2.5" fill="white" fill-opacity="0.3"/>
<circle cx="264.5" cy="286.5" r="2.5" fill="white" fill-opacity="0.3"/>
<circle cx="281.5" cy="397.5" r="2.5" fill="white" fill-opacity="0.3"/>
<circle cx="206.5" cy="445.5" r="2.5" fill="white" fill-opacity="0.3"/>
<circle cx="211.5" cy="138.5" r="2.5" fill="white" fill-opacity="0.3"/>
<circle cx="310.5" cy="154.5" r="2.5" fill="white" fill-opacity="0.3"/>
<circle cx="310.5" cy="221.5" r="2.5" fill="white" fill-opacity="0.3"/>
<circle cx="153.5" cy="221.5" r="2.5" fill="white" fill-opacity="0.3"/>
<circle cx="126.5" cy="299.5" r="2.5" fill="white" fill-opacity="0.3"/>
<circle cx="116.5" cy="373.5" r="2.5" fill="white" fill-opacity="0.3"/>
<circle cx="682" cy="503" r="8" fill="white" fill-opacity="0.05"/>
<circle cx="602" cy="187" r="8" fill="white" fill-opacity="0.05"/>
<circle cx="637" cy="195" r="8" fill="white" fill-opacity="0.05"/>
<circle cx="76" cy="530" r="8" fill="white" fill-opacity="0.05"/>
<circle cx="503" cy="323" r="8" fill="white" fill-opacity="0.05"/>
<circle cx="454" cy="628" r="6" fill="white" fill-opacity="0.1"/>
<circle cx="454" cy="695" r="6" fill="white" fill-opacity="0.1"/>
<circle cx="408" cy="707" r="6" fill="white" fill-opacity="0.1"/>
<circle cx="398" cy="631" r="6" fill="white" fill-opacity="0.1"/>
<circle cx="427" cy="534" r="6" fill="white" fill-opacity="0.1"/>
<circle cx="402" cy="437" r="6" fill="white" fill-opacity="0.1"/>
<circle cx="232" cy="431" r="6" fill="white" fill-opacity="0.1"/>
<circle cx="148" cy="453" r="6" fill="white" fill-opacity="0.1"/>
<circle cx="212" cy="336" r="6" fill="white" fill-opacity="0.1"/>
<circle cx="417" cy="90" r="6" fill="white" fill-opacity="0.1"/>
<circle cx="302" cy="90" r="6" fill="white" fill-opacity="0.1"/>
<circle cx="276" cy="163" r="6" fill="white" fill-opacity="0.1"/>
<circle cx="113" cy="427" r="6" fill="white" fill-opacity="0.1"/>
<circle cx="554" cy="520" r="6" fill="white" fill-opacity="0.1"/>
<circle cx="680" cy="370" r="6" fill="white" fill-opacity="0.1"/>
<circle cx="680" cy="238" r="6" fill="white" fill-opacity="0.1"/>
<circle cx="379" cy="206" r="6" fill="white" fill-opacity="0.1"/>
<circle cx="335" cy="286" r="6" fill="white" fill-opacity="0.1"/>
<circle cx="488" cy="222" r="6" fill="white" fill-opacity="0.1"/>
<circle cx="504" cy="142" r="6" fill="white" fill-opacity="0.1"/>
<circle cx="611" cy="618" r="6" fill="white" fill-opacity="0.1"/>
<circle cx="496.072" cy="318.076" r="6" transform="rotate(-2.28003 496.072 318.076)" fill="#909090"/>
<circle cx="239.684" cy="275.743" r="2.5" transform="rotate(-2.28003 239.684 275.743)" fill="#909090"/>
<circle cx="269.665" cy="249.529" r="2.5" transform="rotate(-2.28003 269.665 249.529)" fill="#909090"/>
<circle cx="316.132" cy="335.749" r="2.5" transform="rotate(-2.28003 316.132 335.749)" fill="#909090"/>
<circle cx="308.372" cy="367.082" r="4.5" transform="rotate(-2.28003 308.372 367.082)" fill="#909090"/>
<circle cx="369.72" cy="387.158" r="3" transform="rotate(-2.28003 369.72 387.158)" fill="#909090"/>
<circle cx="390.544" cy="382.325" r="6" transform="rotate(-2.28003 390.544 382.325)" fill="#909090"/>
<circle cx="420.654" cy="309.069" r="6" transform="rotate(-2.28003 420.654 309.069)" fill="#909090"/>
<circle cx="548.534" cy="404.057" r="8" transform="rotate(-2.28003 548.534 404.057)" fill="white"/>
<circle cx="677.771" cy="507.998" r="8" transform="rotate(-2.28003 677.771 507.998)" fill="#909090"/>
<circle cx="593.456" cy="627.447" r="8" transform="rotate(-2.28003 593.456 627.447)" fill="#909090"/>
<circle cx="542.171" cy="445.343" r="7" transform="rotate(-2.28003 542.171 445.343)" fill="white"/>
<circle cx="509.312" cy="474.673" r="7" transform="rotate(-2.28003 509.312 474.673)" fill="white"/>
<circle cx="580.316" cy="146.589" r="6" transform="rotate(-2.28003 580.316 146.589)" fill="#909090"/>
<circle cx="500.026" cy="115.758" r="6" transform="rotate(-2.28003 500.026 115.758)" fill="#909090"/>
<circle cx="476.284" cy="122.709" r="6" transform="rotate(-2.28003 476.284 122.709)" fill="#909090"/>
<circle cx="594.733" cy="207.063" r="6" transform="rotate(-2.28003 594.733 207.063)" fill="#909090"/>
<circle cx="584.175" cy="243.512" r="6" transform="rotate(-2.28003 584.175 243.512)" fill="#909090"/>
<path d="M188.864 522.912C187.445 522.912 186.179 522.253 185.064 520.936C184.051 519.619 183.392 518.301 183.088 516.984L182.632 515.008C182.328 513.893 181.568 513.336 180.352 513.336C179.237 513.336 178.224 513.691 177.312 514.4C167.787 521.899 158.92 525.648 150.712 525.648C140.173 525.648 134.904 518.605 134.904 504.52C134.904 499.555 136.171 493.373 138.704 485.976C141.339 478.579 145.088 470.877 149.952 462.872C154.816 454.765 160.288 447.216 166.368 440.224C172.549 433.131 179.643 427.304 187.648 422.744C195.755 418.184 203.811 415.904 211.816 415.904C216.173 415.904 219.72 416.664 222.456 418.184C222.861 418.387 223.317 418.488 223.824 418.488C224.331 418.488 224.837 418.336 225.344 418.032C227.877 416.309 231.12 415.448 235.072 415.448C239.024 415.448 241 416.411 241 418.336C241 420.768 238.467 425.581 233.4 432.776C225.496 444.024 219.011 449.648 213.944 449.648C212.627 449.648 211.715 449.547 211.208 449.344C210.803 449.141 210.6 448.736 210.6 448.128C210.6 447.52 210.904 446.507 211.512 445.088C213.539 440.832 214.552 437.336 214.552 434.6C214.552 431.763 213.995 429.635 212.88 428.216C211.867 426.696 209.688 425.936 206.344 425.936C200.264 425.936 193.019 430.547 184.608 439.768C176.299 448.888 169.155 459.477 163.176 471.536C157.197 483.493 154.208 493.373 154.208 501.176C154.208 507.763 156.944 511.056 162.416 511.056C166.672 511.056 171.485 508.877 176.856 504.52C182.328 500.163 186.787 495.501 190.232 490.536C193.779 485.469 195.552 481.872 195.552 479.744C195.552 477.515 194.488 475.995 192.36 475.184C190.232 474.272 186.128 473.816 180.048 473.816C178.832 473.816 178.224 473.36 178.224 472.448C178.224 470.725 179.187 468.952 181.112 467.128C183.139 465.304 185.064 464.291 186.888 464.088C194.184 463.581 201.835 463.328 209.84 463.328C217.947 463.328 222 464.037 222 465.456C222 466.672 221.291 468.547 219.872 471.08C218.555 473.613 217.44 475.691 216.528 477.312C215.717 478.832 214.451 481.011 212.728 483.848C211.107 486.584 209.789 488.763 208.776 490.384C207.763 492.005 206.192 494.488 204.064 497.832C202.037 501.075 200.416 503.709 199.2 505.736C197.984 507.763 196.464 510.448 194.64 513.792C192.917 517.136 191.651 519.517 190.84 520.936C190.029 522.253 189.371 522.912 188.864 522.912ZM275.91 471.84L262.99 471.384C256.606 471.384 251.691 473.461 248.246 477.616C245.814 480.656 242.571 485.621 238.518 492.512C234.566 499.403 232.59 504.875 232.59 508.928C232.59 512.677 236.289 514.552 243.686 514.552C248.246 514.552 253.11 513.691 258.278 511.968C268.715 508.523 276.974 501.936 283.054 492.208C283.763 491.296 284.979 490.84 286.702 490.84C288.425 490.84 289.286 491.853 289.286 493.88C289.286 495.805 287.665 499.909 284.422 506.192C281.179 512.475 278.291 517.187 275.758 520.328C274.441 521.949 271.857 522.861 268.006 523.064C264.257 523.267 258.481 523.368 250.678 523.368H235.782L227.118 523.216L223.014 522.912C222.913 522.912 222.558 522.912 221.95 522.912C221.342 522.912 220.582 523.368 219.67 524.28C216.326 527.219 211.563 528.688 205.382 528.688C202.443 528.688 200.974 528.029 200.974 526.712V526.256C200.974 525.141 204.47 518.555 211.462 506.496C218.555 494.336 226.409 480.808 235.022 465.912C243.635 451.016 249.158 440.832 251.59 435.36C254.022 429.787 255.238 425.024 255.238 421.072V419.4C255.238 417.677 266.03 416.816 287.614 416.816C294.707 416.816 300.889 416.917 306.158 417.12C307.678 415.397 311.579 414.536 317.862 414.536C320.497 414.536 321.814 415.195 321.814 416.512C321.814 418.843 319.483 423.555 314.822 430.648C310.262 437.64 306.259 442.403 302.814 444.936C301.699 445.848 300.281 446.304 298.558 446.304C296.835 446.304 295.974 445.949 295.974 445.24C295.974 444.936 296.126 444.531 296.43 444.024C298.051 440.883 298.862 437.336 298.862 433.384C298.862 427.811 295.011 425.024 287.31 425.024C282.649 425.024 278.95 426.24 276.214 428.672C273.579 431.104 270.945 434.499 268.31 438.856C265.675 443.213 263.699 446.963 262.382 450.104C261.166 453.245 260.558 455.221 260.558 456.032C260.558 458.464 261.723 459.984 264.054 460.592C266.486 461.099 271.249 461.352 278.342 461.352L289.59 460.896C290.603 460.896 291.11 461.301 291.11 462.112C291.11 462.821 290.553 464.088 289.438 465.912C288.425 467.635 287.361 468.851 286.246 469.56C284.017 471.08 280.571 471.84 275.91 471.84ZM324.061 525.496C318.69 525.496 315.245 525.293 313.725 524.888C312.205 524.584 310.888 524.28 309.773 523.976C308.76 523.773 308.101 523.621 307.797 523.52C307.493 523.419 307.037 523.368 306.429 523.368C305.213 523.368 304.098 523.672 303.085 524.28C299.538 527.219 294.877 528.688 289.101 528.688C286.061 528.688 284.541 527.979 284.541 526.56C284.541 525.243 288.037 518.504 295.029 506.344C302.122 494.184 309.925 480.656 318.437 465.76C327.05 450.864 332.573 440.629 335.005 435.056C337.538 429.483 338.805 424.669 338.805 420.616V419.4C338.805 416.461 347.266 414.992 364.189 414.992C389.32 414.992 401.885 423.555 401.885 440.68C401.885 453.043 397.68 466.672 389.269 481.568C384.912 489.371 379.794 496.515 373.917 503C368.04 509.485 360.693 514.856 351.877 519.112C343.162 523.368 333.89 525.496 324.061 525.496ZM374.069 473.512C377.818 466.216 380.656 459.427 382.581 453.144C384.608 446.76 385.621 441.44 385.621 437.184C385.621 432.827 384.354 429.533 381.821 427.304C379.389 425.075 375.234 423.96 369.357 423.96C365.304 423.96 362.061 425.379 359.629 428.216C353.245 436.221 344.024 451.016 331.965 472.6C319.906 494.083 313.877 506.648 313.877 510.296C313.877 514.349 318.184 516.376 326.797 516.376C332.877 516.376 339.008 514.248 345.189 509.992C351.37 505.736 356.792 500.416 361.453 494.032C366.114 487.547 370.32 480.707 374.069 473.512ZM401.596 514.4C401.596 516.427 401.698 517.947 401.9 518.96C402.204 519.973 402.356 520.733 402.356 521.24C402.356 523.571 397.391 524.736 387.46 524.736C377.631 524.736 372.716 523.571 372.716 521.24L373.628 519.416C377.074 517.389 383.964 508.016 394.3 491.296C404.636 474.475 415.124 455.525 425.764 434.448C427.994 429.989 429.108 425.784 429.108 421.832V419.4C429.108 416.765 434.53 415.448 445.372 415.448C450.844 415.448 453.58 416.461 453.58 418.488C453.58 419.299 453.175 420.109 452.364 420.92C445.474 429.837 435.29 446.557 421.812 471.08C408.335 495.501 401.596 509.941 401.596 514.4Z" fill="white"/>
<defs>
<linearGradient id="paint0_linear_40_390" x1="215.22" y1="561.437" x2="586.202" y2="561.437" gradientUnits="userSpaceOnUse">
<stop stop-color="white"/>
<stop offset="1" stop-color="white"/>
</linearGradient>
</defs>
</svg>
